<svg width="24" height="24" viewBox="0 0 24 24" fill="none" xmlns="http://www.w3.org/2000/svg">
<path fill-rule="evenodd" clip-rule="evenodd" d="M17.5626 6.05609L17.2196 4.11238C17.6374 4.20665 18.0787 4.34788 18.4647 4.54886C18.9008 4.77586 19.1937 5.03643 19.3533 5.33704L17.6286 6.02694C17.6061 6.03594 17.5841 6.04567 17.5626 6.05609ZM18.4848 11.2816L18.0529 8.83432C19.7082 9.90777 21 10.9282 21.6863 12.6323C18.4505 12.295 15.646 14.8493 15.4617 18H8.49998C8.49998 16.4633 7.92228 15.0615 6.9722 14H9.27922L10.0513 16.3162C10.2259 16.8402 10.7923 17.1233 11.3162 16.9487C11.8402 16.774 12.1233 16.2077 11.9487 15.6838L11.1766 13.3675L11.6337 13.0247C12.6004 12.2997 12.8323 10.9458 12.1621 9.94034C11.789 9.38072 11.1876 9.01469 10.5191 8.94042L3.20322 8.12755C2.13022 8.00832 1.09665 8.57061 0.613833 9.53624C0.117801 10.5283 0.312236 11.7265 1.09653 12.5108L1.23035 12.6446L0.445284 13.168C-0.0142447 13.4743 -0.138418 14.0952 0.167934 14.5547C0.474286 15.0142 1.09516 15.1384 1.55468 14.8321L2.7875 14.0102C4.86244 14.1576 6.49998 15.8875 6.49998 18V18.5C6.49998 19.3284 7.17156 20 7.99998 20H15.9235C16.8667 20 17.4689 19.1872 17.4529 18.4048C17.404 16.0166 19.6631 14.1077 22.0317 14.722C22.496 14.8424 22.9863 14.7447 23.358 14.4691C23.7502 14.1782 24.0261 13.6647 23.9168 13.0657C23.4412 10.4594 21.6322 8.79685 19.5399 7.41647L20.5571 7.00961C21.0962 6.79397 21.5683 6.21604 21.4684 5.48187C21.2807 4.10241 20.3177 3.2587 19.3883 2.77486C18.4616 2.29244 17.5 1.99999 16.7059 2C15.9118 2.00001 14.8705 2.77487 15.0968 3.99999H14C13.4477 3.99999 13 4.4477 13 4.99999C13 5.55227 13.4477 5.99999 14 5.99999H15.4257L16.5152 11.6292C16.6112 12.1731 17.1299 12.5362 17.6738 12.4402C18.2177 12.3442 18.5807 11.8255 18.4848 11.2816ZM2.40269 10.4307C2.51077 10.2145 2.74215 10.0886 2.98236 10.1153L10.2982 10.9282C10.3795 10.9372 10.4526 10.9817 10.498 11.0497C10.5794 11.172 10.5512 11.3366 10.4337 11.4247L9.66665 12H3.4142L2.51075 11.0966C2.33517 10.921 2.29164 10.6528 2.40269 10.4307ZM2.99998 19C3.55227 19 3.99998 18.5523 3.99998 18C3.99998 17.4477 3.55227 17 2.99998 17C2.4477 17 1.99998 17.4477 1.99998 18C1.99998 18.5523 2.4477 19 2.99998 19ZM2.99998 21C4.65684 21 5.99998 19.6569 5.99998 18C5.99998 16.3432 4.65684 15 2.99998 15C1.34313 15 -1.57687e-05 16.3432 -1.57687e-05 18C-1.57687e-05 19.6569 1.34313 21 2.99998 21ZM21 19C21.5523 19 22 18.5523 22 18C22 17.4477 21.5523 17 21 17C20.4477 17 20 17.4477 20 18C20 18.5523 20.4477 19 21 19ZM21 21C22.6568 21 24 19.6569 24 18C24 16.3432 22.6568 15 21 15C19.3431 15 18 16.3432 18 18C18 19.6569 19.3431 21 21 21Z" fill="black"/>
</svg>
