<svg width="24" height="24" viewBox="0 0 24 24" fill="none" xmlns="http://www.w3.org/2000/svg">
<path fill-rule="evenodd" clip-rule="evenodd" d="M13.4866 5.1466C12.6921 4.26384 11.3079 4.26384 10.5134 5.1466L6.00001 10.1615V19C6.00001 19.5523 6.44772 20 7.00001 20H9.00001V17C9.00001 15.3431 10.3432 14 12 14C13.6569 14 15 15.3431 15 17V20H17C17.5523 20 18 19.5523 18 19V10.1615L13.4866 5.1466ZM3.7433 12.6689L4.00001 12.3837V19C4.00001 20.6568 5.34315 22 7.00001 22H9.00001H11H13H15H17C18.6569 22 20 20.6568 20 19V12.3837L20.2567 12.6689C20.6262 13.0795 21.2585 13.1127 21.669 12.7433C22.0795 12.3738 22.1128 11.7415 21.7433 11.331L14.9732 3.80867C13.3842 2.04315 10.6158 2.04315 9.02683 3.80867L2.25671 11.331C1.88726 11.7415 1.92053 12.3738 2.33104 12.7433C2.74155 13.1127 3.37384 13.0795 3.7433 12.6689ZM13 20V17C13 16.4477 12.5523 16 12 16C11.4477 16 11 16.4477 11 17V20H13ZM10 9.99998C9.44772 9.99998 9.00001 10.4477 9.00001 11C9.00001 11.5523 9.44772 12 10 12H14C14.5523 12 15 11.5523 15 11C15 10.4477 14.5523 9.99998 14 9.99998H10Z" fill="black"/>
</svg>
