<svg width="24" height="24" viewBox="0 0 24 24" fill="none" xmlns="http://www.w3.org/2000/svg">
<path fill-rule="evenodd" clip-rule="evenodd" d="M12 2C9 5 7 5 2 5V12C2 17.5228 6.47715 22 12 22C17.5228 22 22 17.5228 22 12V5C17 5 15 5 12 2ZM15.7649 6.56529C17.0387 6.88372 18.4336 6.9691 20 6.99185V12C20 16.4183 16.4183 20 12 20C7.58172 20 4 16.4183 4 12V6.99185C5.56638 6.9691 6.96134 6.88372 8.23507 6.56529C9.62449 6.21793 10.8169 5.61521 12 4.68286C13.1831 5.61521 14.3755 6.21793 15.7649 6.56529ZM14 10C14 11.1046 13.1046 12 12 12C10.8954 12 10 11.1046 10 10C10 8.89543 10.8954 8 12 8C13.1046 8 14 8.89543 14 10ZM8 16C8 14.3431 9.34315 13 11 13H13C14.6569 13 16 14.3431 16 16H8Z" fill="black"/>
</svg>
