<svg width="24" height="24" viewBox="0 0 24 24" fill="none" xmlns="http://www.w3.org/2000/svg">
<path fill-rule="evenodd" clip-rule="evenodd" d="M12 1.99899C9 4.99899 7 4.99899 2 4.99899V11.999C2 17.5218 6.47715 21.999 12 21.999C17.5228 21.999 22 17.5218 22 11.999V4.99899C17 4.99899 15 4.99899 12 1.99899ZM15.7649 6.56428C17.0387 6.88271 18.4336 6.96809 20 6.99085V11.999C20 16.4173 16.4183 19.999 12 19.999C7.58172 19.999 4 16.4173 4 11.999V6.99085C5.56638 6.96809 6.96134 6.88271 8.23507 6.56428C9.62449 6.21692 10.8169 5.61421 12 4.68185C13.1831 5.61421 14.3755 6.21692 15.7649 6.56428ZM14 9.99899C14 11.1036 13.1046 11.999 12 11.999C10.8954 11.999 10 11.1036 10 9.99899C10 8.89442 10.8954 7.99899 12 7.99899C13.1046 7.99899 14 8.89442 14 9.99899ZM8 15.999C8 14.3421 9.34315 12.999 11 12.999H13C14.6569 12.999 16 14.3421 16 15.999H8Z" fill="black"/>
</svg>
