<svg width="24" height="24" viewBox="0 0 24 24" fill="none" xmlns="http://www.w3.org/2000/svg">
<path fill-rule="evenodd" clip-rule="evenodd" d="M10 4H14V6H10V4ZM8 6V4C8 2.89543 8.89543 2 10 2H14C15.1046 2 16 2.89543 16 4V6H19C20.6569 6 22 7.34315 22 9V17C22 18.6569 20.6569 20 19 20V20.5C19 21.3284 18.3284 22 17.5 22C16.6716 22 16 21.3284 16 20.5V20H8V20.5C8 21.3284 7.32843 22 6.5 22C5.67157 22 5 21.3284 5 20.5L5 20C3.34315 20 2 18.6569 2 17V9C2 7.34315 3.34315 6 5 6H8ZM16 8V18H8V8H10H14H16ZM6 8H5C4.44772 8 4 8.44772 4 9V17C4 17.5523 4.44772 18 5 18H6V8ZM18 18H19C19.5523 18 20 17.5523 20 17V9C20 8.44771 19.5523 8 19 8H18V18Z" fill="black"/>
</svg>
